<?xml version="1.0" encoding="utf-8"?><svg viewBox="0 0 502.66 502.66" xmlns="http://www.w3.org/2000/svg" xmlns:xlink="http://www.w3.org/1999/xlink"><style>:root>svg{display:none}:root>svg:target{display:block}</style><svg viewBox="0 0 56 56" id="247" xmlns="http://www.w3.org/2000/svg"><path d="M4.667 28A23.33 23.33 0 0 1 42.45 9.683H38.9a1.167 1.167 0 0 0 0 2.334h6.6a1.167 1.167 0 0 0 1.167-1.167v-6.6a1.168 1.168 0 1 0-2.334 0V8.2A25.667 25.667 0 0 0 9.851 46.15a1.166 1.166 0 1 0 1.65-1.65A23.18 23.18 0 0 1 4.667 28Zm13.136 20.995a23.488 23.488 0 0 1-1.947-1.064 1.166 1.166 0 1 0-1.216 1.991c.696.424 1.411.815 2.144 1.171a1.167 1.167 0 1 0 1.02-2.098Zm31.202-31.17a1.166 1.166 0 1 0 2.1-1.017 25.66 25.66 0 0 0-1.168-2.144 1.165 1.165 0 0 0-1.603-.39 1.167 1.167 0 0 0-.39 1.603 23.5 23.5 0 0 1 1.061 1.948ZM30.768 51.17c-.737.087-1.482.14-2.215.157a1.167 1.167 0 0 0 .027 2.332h.028a26.011 26.011 0 0 0 2.434-.172 1.167 1.167 0 0 0-.274-2.318Zm-6.64-.159a23.164 23.164 0 0 1-2.169-.47 1.167 1.167 0 1 0-.602 2.255c.787.21 1.584.383 2.387.517a1.166 1.166 0 1 0 .384-2.302Zm28.393-23.574a1.167 1.167 0 0 0-1.195 1.138c-.019.74-.072 1.48-.16 2.215a1.168 1.168 0 0 0 2.317.277c.096-.808.155-1.62.175-2.434a1.167 1.167 0 0 0-1.137-1.195Zm-3.58 13.345a1.168 1.168 0 0 0-1.622.31 23.475 23.475 0 0 1-1.333 1.775 1.167 1.167 0 1 0 1.797 1.488c.52-.628 1.009-1.28 1.466-1.953a1.169 1.169 0 0 0-.309-1.62Zm1.607-18.801c.19.715.346 1.44.467 2.17a1.167 1.167 0 1 0 2.302-.383c-.133-.804-.305-1.6-.514-2.387a1.166 1.166 0 1 0-2.255.6Zm-7.7 24.02c-.571.473-1.164.917-1.776 1.333a1.166 1.166 0 1 0 1.309 1.93 25.783 25.783 0 0 0 1.953-1.463 1.166 1.166 0 1 0-1.487-1.8Zm8.84-11.634a1.167 1.167 0 0 0-1.465.757 23.222 23.222 0 0 1-.775 2.079 1.165 1.165 0 1 0 2.144.92c.321-.75.606-1.514.853-2.29a1.166 1.166 0 0 0-.756-1.466Zm-14.507 15.09c-.68.291-1.375.55-2.08.775a1.165 1.165 0 1 0 .709 2.222c.776-.247 1.54-.531 2.289-.851a1.167 1.167 0 1 0-.919-2.146Z"/><path d="M18.134 25.616c0-1.912-1.258-3.444-3.204-3.903a4.857 4.857 0 0 0-5.474 2.574 1.167 1.167 0 0 0 2.088 1.043 2.505 2.505 0 0 1 2.85-1.346c.33.078 1.406.426 1.406 1.632 0 1.217-1.405 2.156-2.893 3.15-1.676 1.118-3.574 2.385-3.574 4.484a1.167 1.167 0 0 0 1.167 1.167h6.467a1.168 1.168 0 1 0 0-2.334h-4.622c.488-.463 1.18-.924 1.857-1.377 1.843-1.23 3.932-2.625 3.932-5.09Zm11.033 3.842A1.167 1.167 0 0 0 28 28.292h-.948v-6.198a1.167 1.167 0 0 0-2.077-.73l-5.906 7.365a1.167 1.167 0 0 0 .91 1.896h4.74v3.281a1.168 1.168 0 1 0 2.333 0v-3.281H28a1.167 1.167 0 0 0 1.167-1.167Zm-4.448-1.166H22.41l2.308-2.879v2.879Zm10.419-7.998a1.164 1.164 0 0 0-1.373.915L31.14 34.334a1.166 1.166 0 0 0 2.287.458l2.625-13.125a1.166 1.166 0 0 0-.914-1.373Zm5.986 14.123a1.169 1.169 0 0 0 1.078-.718l4.375-10.5a1.166 1.166 0 0 0-1.077-1.616h-5.906a1.167 1.167 0 0 0 0 2.334h4.156l-3.702 8.885a1.167 1.167 0 0 0 1.076 1.616Z"/></svg><svg viewBox="0 0 16 16" id="arr-down" xmlns="http://www.w3.org/2000/svg"><path d="M3.75 5.75 8 10.25l4.25-4.5"/></svg><svg viewBox="0 0 16 16" id="arr-right" xmlns="http://www.w3.org/2000/svg"><path d="m8.75 3.25 4.5 4.5m0 0-4.5 4.5m4.5-4.5H2.75"/></svg><svg viewBox="0 0 40 40" id="drop" xmlns="http://www.w3.org/2000/svg"><path d="M6.875 22.5a13.125 13.125 0 1 0 26.25 0C33.125 14.375 20 4.375 20 4.375S6.875 14.375 6.875 22.5Z"/></svg><svg viewBox="0 0 40 40" id="gear" xmlns="http://www.w3.org/2000/svg"><path d="M20 24.375a4.375 4.375 0 1 0 0-8.75 4.375 4.375 0 0 0 0 8.75Z"/><path d="m16.875 4.375-1.25 3.75-3.75 2.5-5-1.25-2.5 5 3.75 3.75v3.75l-3.75 3.75 2.5 5 5-1.25 3.75 2.5 1.25 3.75h6.25l1.25-3.75 3.75-2.5 5 1.25 2.5-5-3.75-3.75v-3.75l3.75-3.75-2.5-5-5 1.25-3.75-2.5-1.25-3.75h-6.25Z"/></svg><svg viewBox="0 0 502.664 502.664" xml:space="preserve" id="icon" xmlns="http://www.w3.org/2000/svg"><path d="M153.821 358.226 0 274.337v-46.463l153.821-83.414v54.574L46.636 250.523l107.185 53.431v54.272zm26.273 29.358L282.103 115.08h32.227L212.084 387.584h-31.99zm168.749-29.358v-54.272l107.164-52.999-107.164-52.59v-53.927l153.821 83.522v46.183l-153.821 84.083z"/></svg><svg viewBox="0 0 24 23" id="like" xmlns="http://www.w3.org/2000/svg"><path d="M7.188 8.063c2.625 0 5.25-7 7.875-7v7h7.874s-.875 13.124-6.125 13.124H7.188m0-13.125v13.126m0-13.125H1.063v13.124h6.125"/></svg><svg viewBox="0 0 40 40" id="map" xmlns="http://www.w3.org/2000/svg"><path d="M25.625 13.125v21.25m-11.25-26.25v21.25m-10 6.25v-23.75l10-5 11.25 5 10-5v23.75l-10 5-11.25-5-10 5Z"/></svg><svg viewBox="0 0 40 40" id="repair" xmlns="http://www.w3.org/2000/svg"><g clip-path="url(#ia)"><mask id="ib" maskUnits="userSpaceOnUse" x="-2" y="-2" width="44" height="44"><path d="M0 0h40v40H0V0Z" stroke-width="3"/></mask><g mask="url(#ib)" stroke-width="2" stroke-linecap="round" stroke-linejoin="round"><path d="M24.642 27.546 12.115 15.02c-2.288 1.088-5.1.708-6.994-1.186C3.227 11.94 2.848 9.13 3.936 6.84l4.09 4.09h2.904V8.026l-4.09-4.09c2.289-1.088 5.1-.709 6.994 1.185 1.894 1.894 2.274 4.706 1.186 6.994l12.526 12.527c2.288-1.088 5.1-.709 6.994 1.185 1.894 1.894 2.273 4.706 1.185 6.994l-4.09-4.09h-2.903v2.905l4.09 4.09c-2.29 1.087-5.1.708-6.995-1.186-1.894-1.894-2.273-4.706-1.185-6.994Z"/><path d="M20.51 24.96 10.345 35.125a4.107 4.107 0 0 1-5.809-5.808l10.165-10.165m-2.904 8.712-7.26 7.261M28.341 11.32l-7.058 7.059M34.876 3.333l1.452 1.452-2.904 5.809-5.083.726.726-5.082 5.809-2.905Z"/></g></g><defs><clipPath id="ia"><path d="M0 0h40v40H0z"/></clipPath></defs></svg><svg viewBox="0 0 40 40" id="sewing" xmlns="http://www.w3.org/2000/svg"><g clip-path="url(#ja)"><mask id="jb" maskUnits="userSpaceOnUse" x="0" y="0" width="40" height="40"><path d="M38.5 38.5v-37h-37v37h37Z" stroke-width="3"/></mask><g mask="url(#jb)" stroke-width="2" stroke-miterlimit="10" stroke-linecap="round" stroke-linejoin="round"><path d="M4.167 35.833s27.97-21.841 31.231-25.103a4.335 4.335 0 0 0 0-6.128 4.334 4.334 0 0 0-6.128 0C26.01 7.863 4.167 35.833 4.167 35.833ZM32.5 8.333 30 10"/><path d="M31.389 9.167s5.278 3.733 5.278 11.2c0 7.603-5.278 14.933-11.611 14.933-2.33 0-4.223-1.912-4.223-4.267 0-2.355 1.892-4.266 4.223-4.266 6.333 0 11.61 9.066 11.61 9.066M28.333 6.667c-2.138-1.681-5.238-3.334-9.166-3.334"/></g></g><defs><clipPath id="ja"><path d="M0 0h40v40H0z"/></clipPath></defs></svg><svg viewBox="0 0 40 40" id="shield" xmlns="http://www.w3.org/2000/svg"><path d="m20 4.375 13.125 5v12.5c0 5.625-5 11.25-13.125 13.75-8.125-2.5-13.125-7.5-13.125-13.75v-12.5l13.125-5Z"/></svg><svg viewBox="0 0 40 40" id="shield-cross" xmlns="http://www.w3.org/2000/svg"><path d="m24.375 14.375-8.75 8.75m0-8.75 8.75 8.75M20 4.375l13.125 5v12.5c0 5.625-5 11.25-13.125 13.75-8.125-2.5-13.125-7.5-13.125-13.75v-12.5l13.125-5Z"/></svg><svg viewBox="0 0 40 40" id="star" xmlns="http://www.w3.org/2000/svg"><path d="m20 4.375-5.625 10-10 1.25 7.5 8.75-2.5 11.25 10.625-5 10.625 5-2.5-11.25 7.5-8.75-10-1.25-5.625-10Z"/></svg><svg viewBox="0 0 40 40" id="sword" xmlns="http://www.w3.org/2000/svg"><path d="m6.875 23.125 3.75 6.25m0 0 5 3.75m-5-3.75-3.75 3.75m-2.5 0 2.5 2.5m7.5-5 21.25-21.25v-5h-5l-21.25 21.25"/></svg><svg viewBox="0 0 21 17" id="tg" xmlns="http://www.w3.org/2000/svg"><path d="m8.014 11.15-.33 4.654c.473 0 .678-.203.924-.447l2.219-2.121 4.598 3.367c.843.47 1.438.223 1.665-.776l3.018-14.143h.001c.268-1.247-.45-1.735-1.272-1.429L1.095 7.048c-1.21.47-1.192 1.145-.206 1.45L5.425 9.91l10.536-6.592c.496-.329.946-.147.576.181l-8.523 7.653Z"/></svg><svg viewBox="0 0 40 40" id="welding" xmlns="http://www.w3.org/2000/svg"><path d="M5.466 20.297v-8.899a5.932 5.932 0 0 1 5.932-5.932m0 0 2.966 2.966 5.34-1.483V3.983L14.363 2.5l-2.966 2.966Zm0 20.763H8.432M37.5 5.466l-7.91 2.797a2.966 2.966 0 1 1 0-5.594l7.91 2.797ZM5.466 37.5A2.966 2.966 0 0 1 2.5 34.534V20.297h5.932v14.237A2.966 2.966 0 0 1 5.466 37.5Z"/></svg><svg viewBox="0 0 21 21" id="whatsapp" xmlns="http://www.w3.org/2000/svg"><g clip-path="url(#qa)"><path d="M10.17.5h-.006C4.65.5.167 4.985.167 10.5c0 2.188.705 4.215 1.903 5.861L.824 20.076l3.844-1.229a9.914 9.914 0 0 0 5.501 1.653c5.514 0 9.998-4.486 9.998-10S15.683.5 10.169.5Zm5.818 14.121c-.241.681-1.199 1.246-1.963 1.411-.522.112-1.205.2-3.502-.752-2.939-1.217-4.831-4.204-4.979-4.397-.141-.194-1.187-1.582-1.187-3.017 0-1.435.728-2.133 1.022-2.433.241-.247.64-.36 1.023-.36.123 0 .235.007.335.012.293.013.44.03.635.494.24.581.828 2.016.898 2.163.072.148.143.348.043.542-.094.2-.176.288-.324.458-.147.17-.287.3-.435.483-.135.159-.287.329-.117.623.17.287.757 1.246 1.622 2.016 1.116.993 2.021 1.311 2.345 1.446.241.1.529.076.705-.111.224-.242.5-.642.781-1.035.2-.283.453-.318.718-.218.27.094 1.699.8 1.992.947.294.147.488.217.56.34.07.124.07.706-.172 1.388Z"/></g><defs><clipPath id="qa"><path transform="translate(.167 .5)" d="M0 0h20v20H0z"/></clipPath></defs></svg></svg>